<svg width="2311" height="2311" viewBox="0 0 2311 2311" fill="none" xmlns="http://www.w3.org/2000/svg">
<g clip-path="url(#clip0_34_38)">
<rect width="2311" height="2311" rx="127" fill="#D8D8D8"/>
<path d="M1103.49 697.436L1709.58 1543.52C1729.79 1571.73 1721.4 1611.22 1691.45 1628.77L793.637 2155.19C767.326 2170.62 733.593 2163.45 715.831 2138.65L109.748 1292.57C89.5352 1264.35 97.9275 1224.87 127.869 1207.31L1025.69 680.898C1052 665.471 1085.73 672.641 1103.49 697.436Z" fill="#C09CFF" stroke="black" stroke-width="100"/>
<mask id="mask0_34_38" style="mask-type:alpha" maskUnits="userSpaceOnUse" x="578" y="778" width="994" height="1174">
<path d="M1084.25 803.419L1560.89 1493.31C1583.93 1526.66 1565.39 1572.71 1525.67 1580.79L1131.89 1660.95C1090.56 1669.36 1054.92 1631.17 1066.16 1590.52L1091.57 1498.64C1101.29 1463.52 1076.29 1428.33 1039.92 1425.94L632.022 1399.14C586.568 1396.16 563.153 1343.37 591.448 1307.67L993.483 800.439C1017.06 770.695 1062.67 772.192 1084.25 803.419Z" fill="black" stroke="black"/>
<path d="M962.905 1722.09C1002.38 1790.47 971.548 1882.3 893.853 1927.16C816.158 1972.01 721.215 1952.8 681.738 1884.42C642.26 1816.05 673.094 1724.22 750.789 1679.36C828.484 1634.5 923.427 1653.71 962.905 1722.09Z" fill="black" stroke="black"/>
</mask>
<g mask="url(#mask0_34_38)">
<rect x="-177" y="507" width="1984" height="1749" fill="#68FFD9"/>
</g>
<path d="M765.817 1059.28L742.074 978.552C737.566 963.226 739.697 946.711 747.948 933.031L782.774 875.285C789.702 863.798 792.356 850.235 790.27 836.983L772.765 725.792C769.01 701.941 780.689 678.312 801.917 666.81L1161.15 472.171C1179.54 462.207 1191 442.971 1191 422.055V236.578C1191 208.368 1211.64 184.401 1239.53 180.211L1568.85 130.749C1576.54 129.595 1584.37 130.024 1591.89 132.01L2011.42 242.906C2035.32 249.222 2052.42 270.215 2053.77 294.891L2080.31 778.517C2081.62 802.508 2067.75 824.748 2045.63 834.122L2009 849.643L2039.2 976.108C2043.18 992.805 2039.43 1010.41 2028.99 1024.03L1995.1 1068.22C1980.86 1086.8 1956.71 1094.77 1934.21 1088.35L1870.71 1070.2C1849 1064 1833 1045.57 1829.91 1023.21L1817 930L1463.2 1080.8C1438.34 1091.4 1424.33 1118.01 1429.68 1144.5L1441.17 1201.48C1443.03 1210.68 1442.58 1220.2 1439.87 1229.19L1425.48 1276.98C1422.23 1287.75 1415.87 1297.32 1407.19 1304.49L1370.3 1334.95C1360.09 1343.39 1347.25 1348 1334.01 1348H1266.39C1250.52 1348 1235.37 1341.38 1224.58 1329.74L1198.51 1301.61C1193.55 1296.25 1187.61 1291.9 1181 1288.79L972.5 1190.5L793.32 1093.29C779.992 1086.06 770.095 1073.82 765.817 1059.28Z" fill="white"/>
<path d="M1817 930L1463.2 1080.8C1438.34 1091.4 1424.33 1118.01 1429.68 1144.5L1441.17 1201.48C1443.03 1210.68 1442.58 1220.2 1439.87 1229.19L1425.48 1276.98C1422.23 1287.75 1415.87 1297.32 1407.19 1304.49L1370.3 1334.95C1360.09 1343.39 1347.25 1348 1334.01 1348H1266.39C1250.52 1348 1235.37 1341.38 1224.58 1329.74L1198.51 1301.61C1193.55 1296.25 1187.61 1291.9 1181 1288.79L972.5 1190.5L793.32 1093.29C779.992 1086.06 770.095 1073.82 765.817 1059.28L742.074 978.552C737.566 963.226 739.697 946.711 747.948 933.031L782.774 875.285C789.702 863.798 792.356 850.235 790.27 836.983L772.765 725.792C769.01 701.941 780.689 678.312 801.917 666.81L1161.15 472.171C1179.54 462.207 1191 442.971 1191 422.055V236.578C1191 208.368 1211.64 184.401 1239.53 180.211L1568.85 130.749C1576.54 129.595 1584.37 130.024 1591.89 132.01L2011.42 242.906C2035.32 249.222 2052.42 270.215 2053.77 294.891L2080.31 778.517C2081.62 802.508 2067.75 824.748 2045.63 834.123L2009 849.643M1817 930L1829.91 1023.21C1833 1045.57 1849 1064 1870.71 1070.2L1934.21 1088.35C1956.71 1094.77 1980.86 1086.8 1995.1 1068.22L2028.99 1024.03C2039.43 1010.41 2043.18 992.805 2039.2 976.108L2009 849.643M1817 930L2009 849.643" stroke="black"/>
<mask id="mask1_34_38" style="mask-type:alpha" maskUnits="userSpaceOnUse" x="714" y="101" width="1394" height="1279">
<path d="M1267.73 1058.53C1215.87 1094.4 1199.39 1123.97 1184.85 1184.55C1167.09 1258.55 1201.82 1309.59 1237.2 1332.39M1267.73 1058.53C1267.73 1084.71 1267.73 1055.14 1267.73 1107.49C1267.73 1172.92 1236.71 1170.98 1274.04 1204.91C1322.68 1249.14 1350.49 1205.23 1408.91 1102.42C1415.4 1091 1425.66 1082.11 1437.91 1077.36L2046.6 841.439C2068.54 832.935 2083 811.822 2083 788.291V583.526M1267.73 1058.53V892.765M1267.73 1058.53L805.331 843.325M1237.2 1332.39C1307 1377.35 1374.19 1352.26 1406.36 1290.7C1438.53 1229.15 1452.41 1165.65 1406.03 1107.49M1237.2 1332.39L811.686 1122.74C807.466 1120.66 803.504 1118.08 799.959 1114.98C779.547 1097.18 762.257 1078.58 746.198 1035.75C734.524 1004.62 738.927 981.465 746.198 945.597C756.607 894.242 785.458 855.639 805.331 843.325M2083 255.384L1590.78 128.069C1582.96 126.046 1574.79 125.709 1566.83 127.08L1184.85 192.858M2083 255.384L1679.73 329.543M2083 255.384V583.526M1184.85 192.858L1679.73 329.543M1184.85 192.858V461.866M1679.73 329.543V673.195M1184.85 461.866L1679.73 673.195M1184.85 461.866L763.647 673.195M1679.73 673.195L2083 583.526M1679.73 673.195L1267.73 892.765M763.647 673.195V827.33L805.331 843.325M763.647 673.195L1267.73 892.765M1825 927.329C1816.28 950.594 1812.54 974.194 1816.9 1005.7C1820.92 1034.77 1855.68 1087.61 1889.12 1094.4C1922.56 1101.19 1981.21 1088.1 2003.99 1074.04C2026.77 1059.99 2044.71 1005.21 2044.71 967.893C2044.71 938.035 2022.41 878.708 1992.36 857.543" stroke="black" stroke-width="49"/>
<ellipse cx="851.862" cy="788.069" rx="30.5361" ry="36.8372" fill="black"/>
<ellipse cx="1174.67" cy="939.296" rx="30.5361" ry="36.8372" fill="black"/>
</mask>
<g mask="url(#mask1_34_38)">
<rect x="692.469" y="20.3048" width="1491.91" height="1399.81" fill="#5AC2FF"/>
</g>
</g>
<defs>
<clipPath id="clip0_34_38">
<rect width="2311" height="2311" fill="white"/>
</clipPath>
</defs>
</svg>
